<svg width="512" height="512" viewBox="0 0 512 512" fill="none" xmlns="http://www.w3.org/2000/svg">
  <defs>
    <linearGradient id="goldGradient" x1="0%" y1="0%" x2="100%" y2="100%">
      <stop offset="0%" style="stop-color:#D4AF37;stop-opacity:1" />
      <stop offset="100%" style="stop-color:#F4D03F;stop-opacity:1" />
    </linearGradient>
  </defs>
  <rect width="512" height="512" rx="110" fill="url(#goldGradient)"/>
  <g transform="translate(256, 256) scale(2.5)">
    <circle cx="-10" cy="-35" r="12" fill="#000000"/>
    <path d="M -10 -23 L -5 0 L 5 -10 L -10 -23 Z" fill="#000000"/>
    <path d="M -5 -15 L 15 -25 L 17 -22 L -3 -12 Z" fill="#000000"/>
    <path d="M -8 -18 L -25 -8 L -23 -5 L -6 -15 Z" fill="#000000" opacity="0.7"/>
    <path d="M -5 0 L 10 25 L 7 27 L -8 2 Z" fill="#000000"/>
    <path d="M -5 -2 L -20 20 L -23 18 L -8 -4 Z" fill="#000000" opacity="0.7"/>
    <line x1="-45" y1="-15" x2="-30" y2="-15" stroke="#FFD700" stroke-width="3" stroke-linecap="round" opacity="0.6"/>
    <line x1="-40" y1="-5" x2="-28" y2="-5" stroke="#FFD700" stroke-width="2.5" stroke-linecap="round" opacity="0.5"/>
    <line x1="-43" y1="5" x2="-32" y2="5" stroke="#FFD700" stroke-width="2" stroke-linecap="round" opacity="0.4"/>
  </g>
</svg>
